# xmcd
#
# Track frame offsets:
#	183
#	10663
#	22973
#	35560
#	49510
#	62480
#	77115
#	95183
#	109290
#	120170
#	133075
#	145363
#	163738
#	177540
#	190808
#	204888
#	218865
#	228838
#	244790
#	255535
#
# Disc length: 3608
#
# Revision: 1
# Processed by: cddbd v1.5.1PL0 Copyright (c) Steve Scherf et al.
# Submitted via: CDex 1.40Beta9
# Normalized: r0:DSETVAR1,TDELIM( - )
#
DISCID=100e1614
DTITLE=Various Artist - Country Girls
DYEAR=1991
DGENRE=Country
TTITLE0=Crystal Gayle - Wrong Road Again
TTITLE1=Billie Jo Spears - What I've Got In Mind
TTITLE2=Tanya Tucker - Daddy And Home
TTITLE3=Juice Newton - All I Have To Do Is Dream
TTITLE4=Barbara Mandrell - I Wish That I Could Fall In Love Today
TTITLE5=Melba Montgomery - The Pinkertons Flowers
TTITLE6=Dottie West - Hey Mr. Dream Maker
TTITLE7=Lacy J. Dalton - Still Crazy After All These Years
TTITLE8=Crystal Gayle - Somebody Loves You
TTITLE9=Billie Jo Spears - 57 Chevrolet
TTITLE10=Tanya Tucker - Strong Enough To Bend
TTITLE11=Juice Newton - The Sweetest Thing I've Ever Known
TTITLE12=Barbara Mandrell - It All Came True
TTITLE13=Wanda Jackson - Reuben James
TTITLE14=Bobbie Gentry - Mississippi Delta
TTITLE15=Suzy Boggus - Under The Gun
TTITLE16=Jean Shepard - Slippin' Away
TTITLE17=Nancy Peppers - Coat Of Many Colours
TTITLE18=Jessi Colter - It's Morning (And I Still Love You)
TTITLE19=Cristy Lane - Simple Little Words
EXTD=YEAR: 1991 ID3G: 2
EXTT0=
EXTT1=
EXTT2=
EXTT3=
EXTT4=
EXTT5=
EXTT6=
EXTT7=
EXTT8=
EXTT9=
EXTT10=
EXTT11=
EXTT12=
EXTT13=
EXTT14=
EXTT15=
EXTT16=
EXTT17=
EXTT18=
EXTT19=
PLAYORDER=
